<?xml version="1.0" encoding="utf-8"?>
<!-- Generator: Adobe Illustrator 19.2.1, SVG Export Plug-In . SVG Version: 6.00 Build 0)  -->
<svg version="1.1"
	 id="Ebene_1" xmlns:cc="http://creativecommons.org/ns#" xmlns:dc="http://purl.org/dc/elements/1.1/" xmlns:rdf="http://www.w3.org/1999/02/22-rdf-syntax-ns#" xmlns:svg="http://www.w3.org/2000/svg"
	 xmlns="http://www.w3.org/2000/svg" xmlns:xlink="http://www.w3.org/1999/xlink" x="0px" y="0px" viewBox="0 0 97.2 13.4" preserveAspectRatio="none"
	 style="enable-background:new 0 0 97.2 13.4;" xml:space="preserve">
<style type="text/css">
	.st0{fill:#FFFFFF;}
</style>
<g>
	<path class="st0" d="M0,11.8C0,12.6,0.3,13,1.1,13H10c0.8,0,1.1-0.5,1.1-1.2c0-0.7-0.3-1.2-1.1-1.2H1.1C0.3,10.6,0,11.1,0,11.8
		L0,11.8z M0.5,11.8c0-0.4,0.1-0.8,0.8-0.8h8.5c0.7,0,0.8,0.3,0.8,0.8c0,0.5-0.1,0.8-0.9,0.8H1.3C0.6,12.6,0.5,12.3,0.5,11.8
		L0.5,11.8z"/>
	<path class="st0" d="M0,8.5c0,0.8,0.3,1.2,1.1,1.2H10c0.8,0,1.1-0.5,1.1-1.2c0-0.7-0.3-1.2-1.1-1.2H1.1C0.3,7.3,0,7.9,0,8.5L0,8.5z
		 M0.5,8.6c0-0.4,0.1-0.8,0.8-0.8h8.5c0.7,0,0.8,0.3,0.8,0.8c0,0.5-0.1,0.8-0.9,0.8H1.3C0.6,9.3,0.5,9.1,0.5,8.6L0.5,8.6z"/>
	<path class="st0" d="M0,5.3C0,6,0.3,6.5,1.1,6.5H10c0.8,0,1.1-0.5,1.1-1.2c0-0.7-0.3-1.2-1.1-1.2H1.1C0.3,4.1,0,4.6,0,5.3L0,5.3z"
		/>
	<path class="st0" d="M44,12.5V4.6c0-0.3-0.1-0.5-0.4-0.5H42c-0.3,0-0.5,0.2-0.5,0.5v7.9c0,0.3,0.1,0.5,0.4,0.5h1.5
		C43.8,13,44,12.9,44,12.5L44,12.5z M44,1.4c0-0.5-0.1-0.8-0.3-1c-0.2-0.2-0.5-0.3-1-0.3c-0.8,0-1.3,0.4-1.3,1.3
		c0,0.9,0.4,1.3,1.3,1.3c0.4,0,0.8-0.1,1-0.3C43.9,2.2,44,1.8,44,1.4L44,1.4z M48.3,12.5V6.8c0-0.2,0-0.4,0.1-0.4
		c0.1-0.1,0.2-0.1,0.3-0.2c0.4-0.2,0.9-0.2,1.5-0.2s1.1,0.2,1.2,0.5c0.1,0.2,0.1,0.5,0.1,0.9v5.3c0,0.3,0.1,0.5,0.4,0.5h1.5
		c0.3,0,0.4-0.2,0.4-0.5V6.7c0-0.8-0.1-1.4-0.2-1.7c-0.1-0.4-0.4-0.7-0.8-0.8c-0.4-0.2-1-0.3-1.8-0.3c-0.8,0-1.6,0.1-2.5,0.2
		c-0.9,0.1-1.6,0.3-2.1,0.5c-0.4,0.2-0.6,0.5-0.6,1.1v6.8c0,0.3,0.1,0.5,0.4,0.5h1.5C48.2,13,48.3,12.9,48.3,12.5L48.3,12.5z
		 M58.2,9.4V6.1h1.6c0.3,0,0.5-0.2,0.5-0.5v-1c0-0.3-0.2-0.5-0.5-0.5h-1.5V2.3c0-0.4-0.1-0.6-0.4-0.6h-1.3c-0.3,0-0.5,0.2-0.5,0.5
		c0,0.8-0.1,1.4-0.1,1.8l-0.1,1.9v3.2c0,0.8,0,1.4,0.1,1.8c0.1,0.4,0.2,0.8,0.5,1.1c0.3,0.4,0.7,0.6,1.2,0.8
		c0.5,0.1,1.3,0.2,2.3,0.2c0.3,0,0.5-0.2,0.5-0.5c0-0.4,0-0.7,0-1c0-0.3-0.1-0.5-0.4-0.5c-0.8-0.1-1.4-0.2-1.6-0.4
		C58.3,10.5,58.2,10.1,58.2,9.4L58.2,9.4z M64,9.3h4.9c0.2,0,0.3,0,0.4-0.1c0.1-0.1,0.2-0.3,0.2-0.6c0-0.7,0-1.2-0.1-1.6
		c0-0.4-0.1-0.8-0.3-1.3c-0.1-0.4-0.3-0.8-0.6-1c-0.3-0.2-0.6-0.4-1.1-0.6c-0.5-0.2-1-0.2-1.7-0.2c-1.5,0-2.5,0.4-3.2,1.1
		c-0.7,0.7-1,1.9-1,3.6c0,1.6,0.3,2.8,1,3.5c0.7,0.7,1.8,1.1,3.4,1.1c1.4,0,2.4-0.2,3.1-0.5c0.2-0.1,0.3-0.2,0.3-0.4
		c0-0.3-0.1-0.7-0.2-1.1C69,11.1,68.9,11,68.7,11c-0.1,0-0.3,0-0.5,0.1c-0.5,0.1-1.2,0.2-2,0.2c-0.7,0-1.3-0.1-1.6-0.4
		C64.2,10.6,64,10.1,64,9.3L64,9.3z M64,7.6c0-0.7,0.2-1.2,0.4-1.5c0.3-0.3,0.7-0.5,1.3-0.5c0.6,0,1,0.1,1.2,0.4
		c0.2,0.3,0.3,0.7,0.3,1.2c0,0.2,0,0.3,0,0.3H64L64,7.6z M73.7,12.5V6.8c0-0.2,0-0.4,0.1-0.4c0.1-0.1,0.2-0.1,0.3-0.2
		c0.4-0.2,0.9-0.2,1.5-0.2s1.1,0.2,1.2,0.5C77,6.6,77,6.9,77,7.3v5.3c0,0.3,0.1,0.5,0.4,0.5h1.5c0.3,0,0.4-0.2,0.4-0.5V6.7
		c0-0.8-0.1-1.4-0.2-1.7c-0.1-0.4-0.4-0.7-0.8-0.8c-0.4-0.2-1-0.3-1.8-0.3c-0.8,0-1.6,0.1-2.5,0.2c-0.9,0.1-1.6,0.3-2.1,0.5
		c-0.4,0.2-0.6,0.5-0.6,1.1v6.8c0,0.3,0.1,0.5,0.4,0.5h1.5C73.6,13,73.7,12.9,73.7,12.5L73.7,12.5z M84.6,9.7
		c0.4,0.1,0.7,0.2,0.8,0.3c0.1,0.1,0.2,0.3,0.2,0.4c0,0.5-0.4,0.8-1.3,0.8c-0.9,0-1.7-0.1-2.3-0.3c-0.3-0.1-0.5-0.1-0.5-0.1
		c-0.2,0-0.4,0.1-0.4,0.4c-0.2,0.6-0.3,1-0.3,1.1c0,0.2,0.1,0.4,0.3,0.5c0.7,0.3,1.7,0.4,3.1,0.4c2.4,0,3.6-0.9,3.6-2.8
		c0-0.8-0.2-1.4-0.5-1.7c-0.3-0.4-0.9-0.7-1.8-0.9l-1.2-0.3c-0.4-0.1-0.7-0.2-0.8-0.4c-0.1-0.1-0.2-0.3-0.2-0.5
		c0-0.2,0.1-0.4,0.2-0.6c0.2-0.1,0.5-0.2,0.9-0.2c0.7,0,1.4,0.1,2,0.2c0.3,0,0.4,0.1,0.5,0.1c0.2,0,0.3-0.1,0.4-0.3
		c0.2-0.6,0.2-1,0.2-1.2c0-0.2-0.1-0.4-0.4-0.5c-0.6-0.2-1.5-0.3-2.6-0.3c-2.4,0-3.6,0.9-3.6,2.8c0,0.8,0.2,1.4,0.6,1.8
		c0.4,0.4,0.9,0.7,1.7,0.9L84.6,9.7L84.6,9.7z M91.6,9.3h4.9c0.2,0,0.3,0,0.4-0.1c0.1-0.1,0.2-0.3,0.2-0.6c0-0.7,0-1.2-0.1-1.6
		c0-0.4-0.1-0.8-0.3-1.3c-0.1-0.4-0.3-0.8-0.6-1c-0.3-0.2-0.6-0.4-1.1-0.6c-0.5-0.2-1-0.2-1.7-0.2c-1.5,0-2.5,0.4-3.2,1.1
		c-0.7,0.7-1,1.9-1,3.6c0,1.6,0.3,2.8,1,3.5c0.7,0.7,1.8,1.1,3.4,1.1c1.4,0,2.4-0.2,3.1-0.5c0.2-0.1,0.3-0.2,0.3-0.4
		c0-0.3-0.1-0.7-0.2-1.1c-0.1-0.2-0.2-0.3-0.4-0.3c-0.1,0-0.3,0-0.5,0.1c-0.5,0.1-1.2,0.2-2,0.2c-0.7,0-1.3-0.1-1.6-0.4
		C91.7,10.6,91.6,10.1,91.6,9.3L91.6,9.3z M91.6,7.6c0-0.7,0.2-1.2,0.4-1.5c0.3-0.3,0.7-0.5,1.3-0.5c0.6,0,1,0.1,1.2,0.4
		c0.2,0.3,0.3,0.7,0.3,1.2c0,0.2,0,0.3,0,0.3H91.6L91.6,7.6z"/>
	<path class="st0" d="M16.6,9.3h4.9c0.2,0,0.3,0,0.4-0.1c0.1-0.1,0.2-0.3,0.2-0.6c0-0.7,0-1.2-0.1-1.6c0-0.4-0.1-0.8-0.3-1.3
		c-0.1-0.4-0.3-0.8-0.6-1c-0.3-0.2-0.6-0.4-1.1-0.6c-0.5-0.2-1-0.2-1.7-0.2c-1.5,0-2.5,0.4-3.2,1.1c-0.7,0.7-1,1.9-1,3.6
		c0,1.6,0.3,2.8,1,3.5c0.7,0.7,1.8,1.1,3.4,1.1c1.4,0,2.4-0.2,3.1-0.5c0.2-0.1,0.3-0.2,0.3-0.4c0-0.3-0.1-0.7-0.2-1.1
		c-0.1-0.2-0.2-0.3-0.4-0.3c-0.1,0-0.3,0-0.5,0.1c-0.5,0.1-1.2,0.2-2,0.2c-0.7,0-1.3-0.1-1.6-0.4C16.8,10.6,16.6,10.1,16.6,9.3
		L16.6,9.3z M16.6,7.6c0-0.7,0.2-1.2,0.4-1.5c0.3-0.3,0.7-0.5,1.3-0.5c0.6,0,1,0.1,1.2,0.4c0.2,0.3,0.3,0.7,0.3,1.2
		c0,0.2,0,0.3,0,0.3H16.6L16.6,7.6z M25.9,8.6c0-1,0.1-1.6,0.4-2.1c0.3-0.4,0.8-0.6,1.6-0.6c0.5,0,0.9,0,1.2,0.1c0,0,0.1,0,0.3,0
		c0.1,0,0.3,0,0.3,0c0.2,0,0.3-0.1,0.4-0.3c0.1-0.5,0.2-0.9,0.2-1.2c0-0.2-0.1-0.3-0.3-0.4c-0.6-0.2-1.3-0.2-2.1-0.2
		c-1.6,0-2.7,0.4-3.4,1.1c-0.7,0.8-1,2-1,3.7c0,1.7,0.3,2.8,1,3.5c0.7,0.7,1.7,1,3.1,1c1,0,1.9-0.1,2.6-0.4c0.2-0.1,0.3-0.2,0.3-0.5
		c0-0.3-0.1-0.6-0.2-1.1c-0.1-0.2-0.2-0.3-0.4-0.3c-0.1,0-0.3,0-0.5,0.1c-0.4,0.1-0.9,0.1-1.5,0.1c-0.7,0-1.2-0.2-1.5-0.6
		C26.1,10.3,25.9,9.6,25.9,8.6L25.9,8.6z M39.8,8.5c0-1-0.1-1.8-0.2-2.4c-0.2-0.6-0.4-1.1-0.8-1.4C38.4,4.4,38,4.2,37.5,4
		c-0.5-0.1-1.1-0.2-1.8-0.2c-0.7,0-1.2,0.1-1.7,0.2c-0.5,0.1-0.9,0.4-1.3,0.7c-0.4,0.3-0.7,0.8-0.9,1.4c-0.2,0.6-0.3,1.4-0.3,2.3
		c0,1.8,0.3,3,1,3.7c0.6,0.7,1.7,1,3.2,1c1.5,0,2.6-0.3,3.3-1C39.5,11.6,39.8,10.3,39.8,8.5L39.8,8.5z M37.4,8.6
		c0,1.1-0.1,1.8-0.4,2.2c-0.3,0.3-0.8,0.5-1.5,0.5c-0.7,0-1.2-0.2-1.4-0.5c-0.3-0.4-0.4-1.1-0.4-2.2c0-1,0.1-1.7,0.4-2.1
		c0.3-0.4,0.8-0.5,1.4-0.5c0.7,0,1.2,0.2,1.4,0.5C37.3,6.8,37.4,7.5,37.4,8.6L37.4,8.6z"/>
</g>
</svg>
