<?xml version="1.0" encoding="utf-8"?>
<!-- Generator: Adobe Illustrator 15.1.0, SVG Export Plug-In . SVG Version: 6.00 Build 0)  -->
<!DOCTYPE svg PUBLIC "-//W3C//DTD SVG 1.1//EN" "http://www.w3.org/Graphics/SVG/1.1/DTD/svg11.dtd">
<svg version="1.1" id="Ebene_2" xmlns="http://www.w3.org/2000/svg" xmlns:xlink="http://www.w3.org/1999/xlink" x="0px" y="0px"
	 width="267.842px" height="129.853px" viewBox="173.075 216.369 267.842 129.853"
	 enable-background="new 173.075 216.369 267.842 129.853" xml:space="preserve">
<g fill="white">
	<g>
		<path d="M312.46,269.022l-1.137-13.639l42.992-8.143l-7.769-22.868l-52.842,31.391l-2.271-3.787l6.062-3.034
			c0,0-0.672-1.618-1.089-1.557c-0.329,0.045-5.919,2.505-5.919,2.505s-2.46-1.323-3.6-1.512c-1.137-0.188-4.732,3.787-4.732,3.787
			l-1.45,3.673c0,0,1.259,1.629,2.586,3.148c1.323,1.509,4.167,6.056,4.167,6.056l-17.475,4.787l3.455,13.397l3.033-0.949
			l-0.759-5.113l3.599-0.946l2.462,9.277l-0.144,8.05l-4.591-0.471l-1.137,3.975l11.557-0.098l2.649-8.233h6.059l2.659,8.331
			l10.789-0.098l-0.706-3.832l-4.269,0.425l0.046-24.333L312.46,269.022z M293.849,263.577c0,0,1.183-1.373,1.374-2.891
			c0.19-1.514-0.191-2.081-0.191-2.081l11.933-2.654l-0.331,4.355L293.849,263.577z"/>
		<polygon points="355.449,223.568 354.694,221.483 364.165,216.369 365.724,219.54 		"/>
		<polygon points="359.803,230.383 370.22,226.596 371.359,230.383 360.754,232.75 		"/>
		<polygon points="363.025,241.703 363.784,244.402 373.636,242.696 373.064,238.34 		"/>
	</g>
	<g>
		<path d="M176.005,324.687v5.207h6.941v2.675h-6.941v8.734h-2.93v-19.289h11.266v2.673H176.005z"/>
		<path d="M199.988,334.133c0,2.646-0.911,5.235-3.983,5.235c-3.072,0-3.983-2.589-3.983-5.235c0-2.561,1.025-5.149,3.983-5.149
			C198.964,328.984,199.988,331.573,199.988,334.133z M202.918,334.104c0-4.238-2.531-7.311-6.913-7.311
			c-4.381,0-6.913,3.073-6.913,7.311c0,4.211,2.532,7.455,6.913,7.455C200.387,341.559,202.918,338.315,202.918,334.104z"/>
		<path d="M219.504,331.687c0-1.195-0.256-2.702-1.792-2.702c-2.759,0-3.356,2.73-3.356,4.95v7.369h-2.931V327.05h2.931v1.563h0.056
			c0.882-1.166,2.219-1.82,3.699-1.82c2.504,0,4.324,1.82,4.324,4.324v0.569L219.504,331.687L219.504,331.687z"/>
		<path d="M245.081,341.559c-2.872,0-6.059-1.821-6.059-5.007v-0.597h2.931c0.029,1.848,1.337,2.93,3.128,2.93
			c1.68,0,3.188-0.825,3.188-2.675c0-4.181-8.792-3.356-8.792-9.104c0-3.356,2.788-5.348,5.946-5.348
			c2.646,0,5.576,1.849,5.576,4.751v0.369h-2.93v-0.199c0.056-1.537-1.309-2.247-2.703-2.247c-1.594,0-2.958,0.626-2.958,2.417
			c0,3.813,8.791,2.874,8.791,9.333C251.198,339.567,248.24,341.559,245.081,341.559z"/>
		<path d="M266.987,335.044c0,2.39-1.309,4.296-3.84,4.296c-1.422,0-2.476-0.825-2.476-2.304c0-1.878,1.679-2.476,3.271-2.476h3.044
			L266.987,335.044L266.987,335.044z M269.918,341.303v-8.876c0-4.183-1.594-5.633-5.719-5.633c-2.618,0-5.633,0.683-5.832,3.84
			h2.93c-0.027-1.537,1.936-1.621,3.044-1.621c2.135,0,2.646,0.854,2.646,2.816v0.512h-2.646c-3.1,0-6.6,1.109-6.6,4.808
			c0,2.931,2.419,4.411,5.121,4.411c1.508,0,3.016-0.57,4.125-1.623v1.366L269.918,341.303L269.918,341.303z"/>
		<path d="M284.14,341.303c-4.324,0-5.405-2.276-5.405-6.229v-14.481h2.929v15.221c0,3.557,2.39,3.044,5.122,3.044v2.447h-2.646
			V341.303z"/>
		<path d="M302.226,332.312h-6.913c0.114-1.906,1.792-3.073,3.585-3.073C300.748,329.239,302.197,330.377,302.226,332.312z
			 M305.158,334.759v-0.882c0-4.125-1.735-7.083-6.203-7.083c-4.524,0-6.572,3.3-6.572,7.481c0,4.411,2.391,7.284,6.942,7.284
			c2.219,0,5.147-0.74,5.292-3.442h-2.901c-0.313,0.91-1.423,0.995-2.248,0.995c-2.448,0-4.241-1.565-4.155-4.04v-0.313H305.158z"/>
		<path d="M335.542,331.715c0,3.869-1.764,6.913-6.005,6.913h-2.048v-13.941h2.048C334.233,324.716,335.542,327.532,335.542,331.715
			z M338.472,331.772c0-6.714-3.044-9.759-9.813-9.759h-4.098v19.289h4.468C335.399,341.303,338.472,338.06,338.472,331.772z"/>
		<path d="M347.035,324.205v-3.614h4.04v3.614H347.035z M348.146,341.303v-11.58h-4.581v-2.673h7.511v14.253H348.146z"/>
		<path d="M369.369,333.508c0,2.19-0.741,4.75-3.386,4.75c-2.788,0-3.474-2.304-3.474-4.666c0-2.218,0.686-4.608,3.33-4.608
			C368.544,328.984,369.369,331.175,369.369,333.508z M372.299,340.819V327.05h-2.93v1.28h-0.059h0.028
			c-0.882-1.167-2.56-1.537-3.954-1.537c-3.896,0-5.805,3.016-5.805,6.628c0,3.755,1.707,7.027,5.862,7.027
			c1.62,0,2.674-0.541,3.926-1.508v2.105c0,2.788-1.31,2.987-3.84,2.987c-0.884,0-2.479-0.113-2.42-1.309v-0.113h-2.931v0.313
			c0,2.958,3.103,3.299,5.378,3.299C369.369,346.224,372.299,345.171,372.299,340.819z"/>
		<path d="M382.17,324.205v-3.614h4.041v3.614H382.17z M383.28,341.303v-11.58h-4.581v-2.673h7.512v14.253H383.28z"/>
		<path d="M402.285,341.559c-3.442,0-4.78-2.277-4.78-5.463v-6.373h-2.93v-2.673h2.93v-3.5l2.931-0.769v4.268h5.092v2.673h-5.092
			v6.658c0,1.365,0.229,2.73,1.906,2.73c1.022,0,2.39-0.512,3.186-1.11v2.703C404.59,341.245,403.364,341.559,402.285,341.559z"/>
		<path d="M421.117,335.044c0,2.39-1.31,4.296-3.841,4.296c-1.421,0-2.475-0.825-2.475-2.304c0-1.878,1.679-2.476,3.271-2.476h3.044
			V335.044z M424.049,341.303v-8.876c0-4.183-1.595-5.633-5.719-5.633c-2.617,0-5.633,0.683-5.833,3.84h2.933
			c-0.028-1.537,1.934-1.621,3.044-1.621c2.134,0,2.645,0.854,2.645,2.816v0.512h-2.645c-3.102,0-6.601,1.109-6.601,4.808
			c0,2.931,2.417,4.411,5.12,4.411c1.507,0,3.016-0.57,4.124-1.623v1.366L424.049,341.303L424.049,341.303z"/>
		<path d="M438.271,341.303c-4.324,0-5.407-2.276-5.407-6.229v-14.481h2.93v15.221c0,3.557,2.392,3.044,5.123,3.044v2.447h-2.646
			V341.303z"/>
	</g>
</g>
</svg>
